<svg width="278" height="96" viewBox="0 0 278 96" fill="none" xmlns="http://www.w3.org/2000/svg">
<path fill-rule="evenodd" clip-rule="evenodd" d="M39.4377 1.00819e-08C39.5651 1.56499e-08 39.6683 0.116172 39.6683 0.259476L39.6683 24.6503C39.6683 24.7936 39.5651 24.9097 39.4377 24.9097C39.3103 24.9097 39.207 24.7936 39.207 24.6503L39.207 0.259476C39.207 0.116172 39.3103 4.51381e-09 39.4377 1.00819e-08Z" fill="black"/>
<path fill-rule="evenodd" clip-rule="evenodd" d="M73.2201 13.787C73.3222 13.8891 73.3222 14.0547 73.2201 14.1568L55.8371 31.5398C55.7349 31.642 55.5693 31.642 55.4672 31.5398C55.3651 31.4377 55.3651 31.2721 55.4672 31.17L72.8502 13.787C72.9524 13.6848 73.118 13.6848 73.2201 13.787Z" fill="black"/>
<path fill-rule="evenodd" clip-rule="evenodd" d="M87.1797 47.7433C87.1797 47.8707 87.0635 47.974 86.9202 47.974L62.5294 47.974C62.3861 47.974 62.27 47.8707 62.27 47.7433C62.27 47.616 62.3861 47.5127 62.5294 47.5127L86.9202 47.5127C87.0635 47.5127 87.1797 47.616 87.1797 47.7433Z" fill="black"/>
<path fill-rule="evenodd" clip-rule="evenodd" d="M73.2213 81.4696C73.1192 81.5717 72.9536 81.5717 72.8515 81.4696L55.4685 64.0866C55.3663 63.9844 55.3663 63.8189 55.4685 63.7167C55.5706 63.6146 55.7362 63.6146 55.8383 63.7167L73.2213 81.0997C73.3235 81.2019 73.3235 81.3675 73.2213 81.4696Z" fill="black"/>
<path fill-rule="evenodd" clip-rule="evenodd" d="M74.6927 38.1984C74.7301 38.3379 74.6473 38.4813 74.5078 38.5187L62.4897 41.7389C62.3502 41.7763 62.2068 41.6935 62.1694 41.554C62.132 41.4145 62.2148 41.2711 62.3543 41.2337L74.3724 38.0135C74.5119 37.9761 74.6553 38.0589 74.6927 38.1984Z" fill="black"/>
<path fill-rule="evenodd" clip-rule="evenodd" d="M71.0409 29.3813C71.1131 29.5064 71.0703 29.6663 70.9452 29.7385L60.1701 35.9595C60.045 36.0318 59.885 35.9889 59.8128 35.8638C59.7406 35.7387 59.7835 35.5788 59.9086 35.5066L70.6837 29.2855C70.8088 29.2133 70.9687 29.2562 71.0409 29.3813Z" fill="black"/>
<path fill-rule="evenodd" clip-rule="evenodd" d="M39.4377 70.5776C39.5651 70.5776 39.6683 70.6938 39.6683 70.8371L39.6683 95.2279C39.6683 95.3712 39.5651 95.4874 39.4377 95.4874C39.3103 95.4874 39.207 95.3712 39.207 95.2279L39.207 70.8371C39.207 70.6938 39.3103 70.5776 39.4377 70.5776Z" fill="black"/>
<path fill-rule="evenodd" clip-rule="evenodd" d="M45.487 70.4489C45.6265 70.4115 45.7699 70.4943 45.8073 70.6338L49.0275 82.6519C49.0649 82.7914 48.9821 82.9348 48.8426 82.9722C48.7031 83.0096 48.5597 82.9268 48.5223 82.7873L45.3021 70.7692C45.2647 70.6297 45.3475 70.4863 45.487 70.4489Z" fill="black"/>
<path fill-rule="evenodd" clip-rule="evenodd" d="M51.1796 68.0919C51.3047 68.0197 51.4646 68.0625 51.5369 68.1876L57.7579 78.9627C57.8301 79.0878 57.7872 79.2478 57.6622 79.32C57.5371 79.3922 57.3771 79.3493 57.3049 79.2243L51.0839 68.4491C51.0117 68.3241 51.0545 68.1641 51.1796 68.0919Z" fill="black"/>
<path fill-rule="evenodd" clip-rule="evenodd" d="M59.8104 59.4561C59.8827 59.331 60.0426 59.2882 60.1677 59.3604L70.9428 65.5814C71.0679 65.6536 71.1108 65.8136 71.0385 65.9387C70.9663 66.0638 70.8064 66.1066 70.6813 66.0344L59.9062 59.8134C59.7811 59.7412 59.7382 59.5812 59.8104 59.4561Z" fill="black"/>
<path fill-rule="evenodd" clip-rule="evenodd" d="M62.1692 53.7664C62.2066 53.6269 62.35 53.5441 62.4896 53.5815L74.5076 56.8017C74.6471 56.8391 74.7299 56.9825 74.6926 57.122C74.6552 57.2616 74.5118 57.3443 74.3723 57.307L62.3542 54.0867C62.2147 54.0493 62.1319 53.9059 62.1692 53.7664Z" fill="black"/>
<path fill-rule="evenodd" clip-rule="evenodd" d="M51.1759 27.2276C51.0508 27.1554 51.0079 26.9955 51.0801 26.8704L57.3011 16.0953C57.3734 15.9702 57.5333 15.9273 57.6584 15.9996C57.7835 16.0718 57.8263 16.2317 57.7541 16.3568L51.5331 27.1319C51.4609 27.257 51.3009 27.2999 51.1759 27.2276Z" fill="black"/>
<path fill-rule="evenodd" clip-rule="evenodd" d="M45.4857 24.8713C45.3462 24.8339 45.2634 24.6905 45.3007 24.551L48.521 12.5329C48.5584 12.3934 48.7018 12.3106 48.8413 12.348C48.9808 12.3854 49.0636 12.5288 49.0262 12.6683L45.806 24.6864C45.7686 24.8259 45.6252 24.9087 45.4857 24.8713Z" fill="black"/>
<path fill-rule="evenodd" clip-rule="evenodd" d="M39.2813 29.0615C29.0511 29.0615 20.7578 37.4259 20.7578 47.7438C20.7578 58.0618 29.0511 66.4261 39.2813 66.4261C40.197 66.4261 41.0971 66.3591 41.9772 66.2297C33.0247 64.9131 26.1496 57.1382 26.1496 47.7438C26.1496 38.3494 33.0247 30.5745 41.9772 29.258C41.0971 29.1285 40.197 29.0615 39.2813 29.0615Z" fill="black"/>
<path d="M28.7779 69.8329C30.5727 70.1934 31.8442 70.8577 32.6816 71.2926L32.1077 74.9474L32.0564 74.9371C31.8326 72.5981 30.6341 70.4191 28.4837 69.9695C26.9145 69.6366 25.5737 70.2031 25.2751 71.6903C24.9902 73.109 25.728 74.0397 28.0212 75.4605C30.2734 76.9086 31.2127 78.1642 30.842 80.0103C30.4678 81.8735 28.5728 82.8089 26.5045 82.3936C24.8635 82.064 23.6092 81.3142 23.2298 81.078L23.8448 77.3959L23.8961 77.4062C23.8023 79.2013 24.6107 81.8176 26.6961 82.2364C28.132 82.5248 29.4829 82.0848 29.7919 80.5463C30.166 78.6831 28.2759 77.7345 26.5774 76.6287C23.9493 74.9273 23.7316 73.532 23.9616 72.3868C24.4078 70.1646 26.4703 69.3695 28.7779 69.8329Z" fill="black"/>
<path d="M18.5221 63.8784C21.4406 66.4473 21.3663 70.5163 19.2006 72.9767C16.7123 75.8035 12.6287 75.6931 10.1814 73.5389C7.34142 71.0391 7.48957 66.9654 9.63222 64.5312C12.1089 61.7175 16.101 61.7473 18.5221 63.8784ZM17.2755 72.8152C19.3836 70.4202 20.314 65.8273 17.8536 63.6616C16.0214 62.0488 13.4104 62.561 11.5327 64.6943C9.4361 67.0761 8.45493 71.6476 10.9677 73.8594C12.6952 75.38 15.4093 74.9353 17.2755 72.8152Z" fill="black"/>
<path d="M14.2671 58.4619C13.1357 58.1629 12.2323 58.3757 10.8446 58.8439L5.16176 60.7614C3.77409 61.2296 3.05856 61.563 2.70312 62.3638L1.74997 59.5389C2.50136 59.9662 3.28915 59.7923 4.67682 59.3241L13.3828 56.3866C11.9682 52.5214 10.444 51.8212 9.22524 51.754L9.20851 51.7045L11.703 50.8628L14.2671 58.4619Z" fill="black"/>
<path d="M13.1934 42.9587C12.7265 45.2834 10.8448 46.6839 8.17821 46.1484L3.46035 45.2009C2.02448 44.9126 1.10135 44.8161 0.0170934 45.2564L0.586991 42.3299C1.41723 43.1546 2.30603 43.422 3.7419 43.7104L8.42558 44.6509C10.699 45.1075 12.5324 44.3019 12.8997 42.4729C13.2807 40.5755 12.2049 38.9368 9.8973 38.4734L5.02559 37.4951C3.58972 37.2068 2.61524 37.1889 1.53098 37.6291L1.88798 35.8514C2.70456 36.6556 3.62405 37.0358 5.05992 37.3242L9.9829 38.3128C12.3076 38.7796 13.6877 40.4972 13.1934 42.9587Z" fill="black"/>
<path d="M21.2172 30.5433L8.45962 29.046L13.616 33.5847C14.7153 34.5524 15.588 35.065 16.7225 35.2275L15.5245 36.5885C15.2178 35.4592 14.6001 34.6832 13.5008 33.7156L8.14812 29.004L6.14453 28.7734L7.37713 27.3731L19.0395 28.7426L14.3527 24.5939C13.2534 23.6263 12.4184 23.1236 11.2593 22.9627L12.4573 21.6016C12.7624 22.7063 13.3686 23.4954 14.4679 24.4631L21.2748 30.4779L21.2172 30.5433Z" fill="black"/>
<path d="M24.269 28.7749C24.5681 27.6435 24.3553 26.7401 23.8871 25.3524L22.1368 20.1652C21.6686 18.7775 21.2906 17.9298 20.3672 17.2109L27.9994 14.6357L28.7742 16.932L28.7246 16.9487C28.1876 16.3387 26.9041 15.1525 25.2026 15.7266C23.0715 16.4457 23.0055 17.9952 23.3455 19.0029C24.0144 20.9853 25.8406 21.326 27.4265 20.7909C27.823 20.6571 28.2027 20.4737 28.5437 20.2299L29.0119 21.6176C26.9075 22.0884 24.772 21.5945 23.6744 19.9776L26.3443 27.8906L26.3774 27.8795C30.5074 26.486 31.4165 24.8176 31.4725 23.5658L31.5221 23.5491L32.3638 26.0436L24.269 28.7749Z" fill="black"/>
<path d="M117.063 67.8C111.813 67.8 107.863 66.65 105.263 65.9L104.813 55.3H104.963C106.913 61.75 111.513 67.2 117.813 67.25C122.413 67.3 125.863 64.95 125.863 60.6C125.863 56.45 123.263 54.25 116.013 51.55C108.863 48.75 105.513 45.75 105.513 40.35C105.513 34.9 110.313 31.2 116.363 31.2C121.163 31.2 125.113 32.6 126.313 33.05L126.663 43.75H126.513C125.763 38.65 122.013 31.75 115.913 31.75C111.713 31.75 108.163 33.75 108.163 38.25C108.163 43.7 114.013 45.3 119.413 47.45C127.763 50.75 129.163 54.55 129.163 57.9C129.163 64.4 123.813 67.8 117.063 67.8ZM149.618 67.8C138.468 67.8 130.918 58.9 130.918 49.5C130.918 38.7 139.918 31.2 149.268 31.2C160.118 31.2 167.518 40.25 167.518 49.55C167.518 60.3 158.868 67.8 149.618 67.8ZM135.368 46.2C135.368 55.35 142.068 67 151.468 67C158.468 67 163.118 60.95 163.118 52.8C163.118 43.7 156.568 32 146.968 32C140.368 32 135.368 38.1 135.368 46.2ZM169.266 67C171.116 64.2 171.366 61.55 171.366 57.35V40.15C171.366 35.95 171.116 33.7 169.266 32H177.816C175.966 33.65 175.716 35.95 175.716 40.15V66.5C187.516 66.2 190.816 62.7 192.116 59.45H192.266V67H169.266ZM206.652 67.8C199.852 67.8 194.852 63.3 194.852 55.5V41.7C194.852 37.5 194.602 34.85 192.752 32.05L201.302 32C199.452 34.8 199.202 37.45 199.202 41.65V55.35C199.202 62 202.502 66.7 207.852 66.7C213.402 66.7 217.402 62.75 217.402 56V41.75C217.402 37.55 216.902 34.8 215.052 32H220.252C218.452 34.75 217.902 37.55 217.902 41.75V56.15C217.902 62.95 213.852 67.8 206.652 67.8ZM246 67.8L225.05 37.5V57.2C225.05 61.4 225.6 64.25 227.4 67H222.2C224.05 64.2 224.55 61.4 224.55 57.2V36.75L221.25 32H226.6L245.75 59.7L245.8 41.75C245.8 37.55 245.3 34.8 243.45 32H248.65C246.85 34.75 246.3 37.55 246.3 41.75L246.25 67.8H246ZM251.15 67C253 64.2 253.25 61.55 253.25 57.35V41.65C253.25 37.45 253 34.8 251.15 32H274.25V38.95H274.1C273.2 36.8 270.8 32.4 265.65 32.4C259.2 32.4 257.6 36.55 257.6 39.6C257.6 45.6 262.25 48.2 267.05 48.2C268.25 48.2 269.45 48.05 270.6 47.7V51.9C264.45 51.25 259.1 47.95 257.6 42.55V66.5H257.7C270.2 66.5 274.2 62.8 275.5 59.45H275.65V67H251.15Z" fill="black"/>
</svg>
