<svg width="88" height="96" viewBox="0 0 88 96" fill="none" xmlns="http://www.w3.org/2000/svg">
  <style>
    path {
      fill: #171717;
    }
    @media (prefers-color-scheme: dark) {
      path {
        fill: #ffffff;
      }
    }
  </style>
  <path fill-rule="evenodd" clip-rule="evenodd" d="M39.4338 5.04093e-08C39.5612 7.82496e-08 39.6644 0.116172 39.6644 0.259476L39.6644 24.6503C39.6644 24.7936 39.5612 24.9097 39.4338 24.9097C39.3064 24.9097 39.2031 24.7936 39.2031 24.6503L39.2031 0.259476C39.2031 0.116172 39.3064 2.2569e-08 39.4338 5.04093e-08Z" />
  <path fill-rule="evenodd" clip-rule="evenodd" d="M73.2162 13.7865C73.3183 13.8886 73.3183 14.0542 73.2162 14.1563L55.8332 31.5394C55.731 31.6415 55.5654 31.6415 55.4633 31.5394C55.3612 31.4372 55.3612 31.2716 55.4633 31.1695L72.8463 13.7865C72.9485 13.6844 73.1141 13.6844 73.2162 13.7865Z" />
  <path fill-rule="evenodd" clip-rule="evenodd" d="M87.1797 47.7443C87.1797 47.8717 87.0635 47.975 86.9202 47.975L62.5294 47.975C62.3861 47.975 62.27 47.8717 62.27 47.7443C62.27 47.6169 62.3861 47.5137 62.5294 47.5137L86.9202 47.5137C87.0635 47.5137 87.1797 47.6169 87.1797 47.7443Z" />
  <path fill-rule="evenodd" clip-rule="evenodd" d="M73.2213 81.4701C73.1192 81.5722 72.9536 81.5722 72.8515 81.4701L55.4685 64.0871C55.3663 63.9849 55.3663 63.8193 55.4685 63.7172C55.5706 63.6151 55.7362 63.6151 55.8383 63.7172L73.2213 81.1002C73.3235 81.2024 73.3235 81.368 73.2213 81.4701Z" />
  <path fill-rule="evenodd" clip-rule="evenodd" d="M74.6927 38.1979C74.7301 38.3374 74.6473 38.4808 74.5078 38.5182L62.4897 41.7385C62.3502 41.7758 62.2068 41.693 62.1694 41.5535C62.132 41.414 62.2148 41.2706 62.3543 41.2332L74.3724 38.013C74.5119 37.9756 74.6553 38.0584 74.6927 38.1979Z" />
  <path fill-rule="evenodd" clip-rule="evenodd" d="M71.037 29.3808C71.1092 29.5059 71.0664 29.6658 70.9413 29.738L60.1662 35.959C60.0411 36.0313 59.8812 35.9884 59.8089 35.8633C59.7367 35.7382 59.7796 35.5783 59.9047 35.5061L70.6798 29.2851C70.8049 29.2128 70.9648 29.2557 71.037 29.3808Z" />
  <path fill-rule="evenodd" clip-rule="evenodd" d="M39.4338 70.5781C39.5612 70.5781 39.6644 70.6943 39.6644 70.8376L39.6644 95.2284C39.6644 95.3717 39.5612 95.4879 39.4338 95.4879C39.3064 95.4879 39.2031 95.3717 39.2031 95.2284L39.2031 70.8376C39.2031 70.6943 39.3064 70.5781 39.4338 70.5781Z" />
  <path fill-rule="evenodd" clip-rule="evenodd" d="M45.487 70.4499C45.6265 70.4125 45.7699 70.4953 45.8073 70.6348L49.0275 82.6529C49.0649 82.7924 48.9821 82.9358 48.8426 82.9732C48.7031 83.0106 48.5597 82.9278 48.5223 82.7883L45.3021 70.7702C45.2647 70.6307 45.3475 70.4873 45.487 70.4499Z" />
  <path fill-rule="evenodd" clip-rule="evenodd" d="M51.1796 68.0919C51.3047 68.0197 51.4647 68.0625 51.5369 68.1876L57.7579 78.9627C57.8301 79.0878 57.7873 79.2478 57.6622 79.32C57.5371 79.3922 57.3771 79.3493 57.3049 79.2243L51.0839 68.4491C51.0117 68.3241 51.0545 68.1641 51.1796 68.0919Z" />
  <path fill-rule="evenodd" clip-rule="evenodd" d="M59.8105 59.4571C59.8827 59.332 60.0426 59.2892 60.1677 59.3614L70.9428 65.5824C71.0679 65.6546 71.1108 65.8146 71.0386 65.9396C70.9663 66.0647 70.8064 66.1076 70.6813 66.0354L59.9062 59.8144C59.7811 59.7421 59.7382 59.5822 59.8105 59.4571Z" />
  <path fill-rule="evenodd" clip-rule="evenodd" d="M62.1693 53.7669C62.2066 53.6274 62.3501 53.5446 62.4896 53.582L74.5076 56.8022C74.6472 56.8396 74.73 56.983 74.6926 57.1225C74.6552 57.262 74.5118 57.3448 74.3723 57.3075L62.3542 54.0872C62.2147 54.0498 62.1319 53.9064 62.1693 53.7669Z" />
  <path fill-rule="evenodd" clip-rule="evenodd" d="M51.172 27.2286C51.0469 27.1564 51.004 26.9964 51.0762 26.8714L57.2973 16.0963C57.3695 15.9712 57.5294 15.9283 57.6545 16.0005C57.7796 16.0727 57.8225 16.2327 57.7502 16.3578L51.5292 27.1329C51.457 27.258 51.2971 27.3008 51.172 27.2286Z" />
  <path fill-rule="evenodd" clip-rule="evenodd" d="M45.4818 24.8718C45.3423 24.8344 45.2595 24.691 45.2969 24.5515L48.5171 12.5334C48.5545 12.3939 48.6979 12.3111 48.8374 12.3485C48.9769 12.3858 49.0597 12.5292 49.0223 12.6688L45.8021 24.6868C45.7647 24.8264 45.6213 24.9091 45.4818 24.8718Z" />
  <path fill-rule="evenodd" clip-rule="evenodd" d="M39.2813 29.0625C29.0511 29.0625 20.7578 37.4268 20.7578 47.7448C20.7578 58.0627 29.0511 66.4271 39.2813 66.4271C40.197 66.4271 41.0971 66.3601 41.9772 66.2307C33.0247 64.9141 26.1496 57.1392 26.1496 47.7448C26.1496 38.3504 33.0247 30.5755 41.9772 29.2589C41.0972 29.1295 40.197 29.0625 39.2813 29.0625Z" />
  <path d="M28.7779 69.8339C30.5728 70.1943 31.8442 70.8587 32.6816 71.2936L32.1077 74.9483L32.0564 74.938C31.8326 72.5991 30.6341 70.4201 28.4838 69.9704C26.9146 69.6375 25.5738 70.2041 25.2751 71.6912C24.9902 73.11 25.728 74.0406 28.0213 75.4614C30.2734 76.9096 31.2127 78.1652 30.842 80.0113C30.4678 81.8745 28.5728 82.8099 26.5045 82.3945C24.8635 82.065 23.6092 81.3152 23.2299 81.079L23.8448 77.3969L23.8961 77.4072C23.8024 79.2022 24.6107 81.8186 26.6961 82.2374C28.132 82.5258 29.4829 82.0857 29.7919 80.5473C30.166 78.6841 28.2759 77.7355 26.5774 76.6297C23.9493 74.9283 23.7316 73.533 23.9616 72.3877C24.4078 70.1656 26.4703 69.3705 28.7779 69.8339Z" />
  <path d="M18.5221 63.8794C21.4406 66.4483 21.3663 70.5172 19.2006 72.9776C16.7123 75.8045 12.6287 75.694 10.1814 73.5399C7.34144 71.0401 7.48959 66.9664 9.63224 64.5322C12.109 61.7184 16.101 61.7482 18.5221 63.8794ZM17.2755 72.8162C19.3836 70.4212 20.314 65.8282 17.8536 63.6625C16.0214 62.0498 13.4104 62.562 11.5327 64.6952C9.43612 67.0771 8.45495 71.6486 10.9677 73.8604C12.6952 75.381 15.4093 74.9363 17.2755 72.8162Z" />
  <path d="M14.2671 58.4615C13.1357 58.1624 12.2323 58.3752 10.8446 58.8434L5.16178 60.7609C3.77411 61.2291 3.05858 61.5625 2.70314 62.3633L1.74998 59.5384C2.50138 59.9657 3.28917 59.7919 4.67684 59.3236L13.3828 56.3861C11.9683 52.5209 10.444 51.8207 9.22525 51.7535L9.20853 51.704L11.703 50.8623L14.2671 58.4615Z" />
  <path d="M13.1934 42.9597C12.7265 45.2844 10.8448 46.6848 8.17823 46.1493L3.46037 45.2019C2.0245 44.9136 1.10137 44.8171 0.0171101 45.2573L0.587008 42.3309C1.41725 43.1556 2.30605 43.423 3.74192 43.7113L8.42559 44.6519C10.6991 45.1084 12.5324 44.3029 12.8997 42.4739C13.2807 40.5765 12.205 38.9378 9.89731 38.4744L5.02561 37.4961C3.58974 37.2077 2.61526 37.1899 1.531 37.6301L1.888 35.8524C2.70458 36.6565 3.62406 37.0368 5.05994 37.3252L9.98292 38.3138C12.3077 38.7806 13.6877 40.4982 13.1934 42.9597Z" />
  <path d="M21.2133 30.5433L8.45573 29.046L13.6121 33.5847C14.7114 34.5524 15.5841 35.065 16.7186 35.2275L15.5206 36.5885C15.2139 35.4592 14.5962 34.6832 13.4969 33.7156L8.14423 29.004L6.14064 28.7734L7.37324 27.3731L19.0356 28.7426L14.3488 24.5939C13.2495 23.6263 12.4145 23.1236 11.2554 22.9627L12.4534 21.6016C12.7585 22.7064 13.3647 23.4954 14.464 24.4631L21.2709 30.4779L21.2133 30.5433Z" />
  <path d="M24.269 28.7749C24.5681 27.6435 24.3553 26.7401 23.8871 25.3524L22.1368 20.1652C21.6686 18.7775 21.2906 17.9298 20.3672 17.2109L27.9994 14.6357L28.7742 16.932L28.7246 16.9487C28.1876 16.3387 26.9041 15.1525 25.2026 15.7266C23.0715 16.4457 23.0055 17.9952 23.3455 19.0029C24.0144 20.9853 25.8406 21.326 27.4265 20.7909C27.823 20.6571 28.2028 20.4737 28.5437 20.2299L29.0119 21.6176C26.9075 22.0884 24.772 21.5945 23.6744 19.9776L26.3444 27.8906L26.3774 27.8795C30.5074 26.486 31.4165 24.8176 31.4726 23.5658L31.5221 23.5491L32.3638 26.0436L24.269 28.7749Z" />
</svg>
